<svg width="249" height="45" viewBox="0 0 249 45" fill="none" xmlns="http://www.w3.org/2000/svg">
<path fill-rule="evenodd" clip-rule="evenodd" d="M215.292 43.4207C216.924 44.1419 218.86 44.5025 221.099 44.5025C222.769 44.5025 224.288 44.2747 225.654 43.8193C227.02 43.4018 228.254 42.7565 229.355 41.8835C229.726 41.5762 230.087 41.2429 230.437 40.8837V43.8193H237.23C234.908 42.2751 233.343 39.6341 233.343 36.7022C233.343 33.2985 235.451 30.287 238.407 28.9282V23.3232C238.407 21.0838 237.838 19.129 236.699 17.459C235.598 15.751 234.042 14.4225 232.031 13.4736C230.019 12.5247 227.704 12.0503 225.085 12.0503C222.883 12.0503 220.853 12.3919 218.993 13.0751C217.133 13.7583 215.539 14.7262 214.21 15.9787C212.882 17.2313 211.914 18.7305 211.307 20.4765L218.139 23.7217C218.67 22.3553 219.505 21.2546 220.644 20.4195C221.821 19.5845 223.168 19.167 224.686 19.167C226.28 19.167 227.533 19.5655 228.444 20.3626C229.393 21.1597 229.867 22.1465 229.867 23.3232V24.1536L221.27 25.5436C218.803 25.9231 216.734 26.5684 215.064 27.4793C213.432 28.3903 212.218 29.5289 211.421 30.8953C210.624 32.2238 210.225 33.761 210.225 35.507C210.225 37.3668 210.662 38.9799 211.535 40.3463C212.408 41.6748 213.66 42.6996 215.292 43.4207ZM229.867 30.4317L222.807 31.6924C221.593 31.9201 220.663 32.3187 220.018 32.888C219.372 33.4194 219.05 34.1975 219.05 35.2223C219.05 36.1712 219.41 36.9113 220.132 37.4427C220.853 37.9741 221.745 38.2398 222.807 38.2398C224.212 38.2398 225.445 37.9361 226.508 37.3288C227.571 36.7215 228.387 35.9055 228.956 34.8807C229.564 33.8179 229.867 32.6603 229.867 31.4077V30.4317Z" fill="#001F3F"/>
<path d="M241.883 43.8189C238.022 43.8189 234.767 40.5633 234.767 36.7022C234.767 32.841 238.022 29.5854 241.883 29.5854C245.744 29.5854 249 32.841 249 36.7022C249 40.5633 245.744 43.8189 241.883 43.8189Z" fill="#E71B24"/>
<path d="M196.688 43.8189V12.7331H205.228V43.8189H196.688ZM196.688 9.94337V1.40332H205.228V9.94337H196.688Z" fill="#001F3F"/>
<path d="M174.726 43.8195V12.7337H182.697V20.192L182.128 19.1103C182.811 16.4913 183.93 14.7264 185.487 13.8154C187.081 12.8665 188.96 12.3921 191.123 12.3921H192.945V19.7935H190.269C188.182 19.7935 186.493 20.4387 185.202 21.7292C183.912 22.9818 183.266 24.7657 183.266 27.081V43.8195H174.726Z" fill="#001F3F"/>
<path d="M165.737 44.1605C161.979 44.1605 159.056 43.1547 156.969 41.143C154.919 39.0934 153.894 36.2467 153.894 32.603V20.1345H148.657V12.7331H148.941C150.535 12.7331 151.75 12.3346 152.585 11.5375C153.458 10.7404 153.894 9.54483 153.894 7.95068V5.67334H162.434V12.7331H169.722V20.1345H162.434V32.0336C162.434 33.0964 162.624 33.9883 163.004 34.7095C163.383 35.3927 163.972 35.9051 164.769 36.2467C165.566 36.5883 166.553 36.7591 167.729 36.7591C167.995 36.7591 168.299 36.7401 168.64 36.7022C168.982 36.6642 169.342 36.6263 169.722 36.5883V43.8189C169.153 43.8948 168.507 43.9707 167.786 44.0466C167.065 44.1225 166.382 44.1605 165.737 44.1605Z" fill="#001F3F"/>
<path d="M133.646 44.5025C130.23 44.5025 127.25 43.7054 124.707 42.1113C122.202 40.4792 120.494 38.2967 119.583 35.5639L125.846 32.6033C126.643 34.2734 127.725 35.5829 129.091 36.5318C130.458 37.4807 131.976 37.9551 133.646 37.9551C134.86 37.9551 135.79 37.7084 136.436 37.215C137.081 36.7215 137.403 36.0383 137.403 35.1654C137.403 34.7099 137.29 34.3303 137.062 34.0267C136.834 33.6851 136.493 33.3814 136.037 33.1157C135.582 32.8501 135.012 32.6223 134.329 32.4325L129.034 30.9523C126.491 30.2311 124.536 29.0735 123.17 27.4793C121.804 25.8472 121.12 23.9305 121.12 21.729C121.12 19.7933 121.614 18.1042 122.601 16.6619C123.588 15.2196 124.973 14.0999 126.757 13.3028C128.541 12.4678 130.59 12.0503 132.906 12.0503C135.942 12.0503 138.599 12.7715 140.876 14.2138C143.192 15.6181 144.824 17.6108 145.773 20.1918L139.453 23.1524C138.998 21.8619 138.163 20.8371 136.948 20.0779C135.771 19.2809 134.424 18.8823 132.906 18.8823C131.805 18.8823 130.932 19.1101 130.287 19.5655C129.679 20.021 129.376 20.6473 129.376 21.4443C129.376 21.8619 129.49 22.2414 129.717 22.583C129.945 22.9246 130.306 23.2283 130.799 23.494C131.331 23.7596 131.976 24.0064 132.735 24.2341L137.688 25.7144C140.269 26.4735 142.243 27.6311 143.609 29.1873C144.976 30.7056 145.659 32.5844 145.659 34.8238C145.659 36.7595 145.146 38.4485 144.122 39.8909C143.135 41.3332 141.749 42.4718 139.965 43.3069C138.182 44.1039 136.075 44.5025 133.646 44.5025Z" fill="#001F3F"/>
<path d="M98.5389 44.5024C96.0338 44.5024 93.8893 43.971 92.1054 42.9082C90.3594 41.8075 89.031 40.2893 88.12 38.3535C87.2091 36.4178 86.7536 34.1594 86.7536 31.5784V12.7334H95.2937V30.8952C95.2937 32.0719 95.5214 33.1156 95.9769 34.0266C96.4703 34.8996 97.1535 35.5828 98.0265 36.0762C98.8995 36.5696 99.8863 36.8163 100.987 36.8163C102.126 36.8163 103.113 36.5696 103.948 36.0762C104.821 35.5828 105.485 34.8996 105.94 34.0266C106.434 33.1156 106.68 32.0719 106.68 30.8952V12.7334H115.22V43.8192H107.25V37.6703L107.705 39.0367C106.984 40.8966 105.807 42.282 104.175 43.1929C102.581 44.0659 100.702 44.5024 98.5389 44.5024Z" fill="#001F3F"/>
<path d="M63.704 44.5022C60.6676 44.5022 57.9537 43.781 55.5625 42.3387C53.1713 40.8964 51.2735 38.9417 49.8691 36.4746C48.5027 34.0074 47.8195 31.2746 47.8195 28.2761C47.8195 25.2396 48.5217 22.5068 49.9261 20.0777C51.3304 17.6105 53.2282 15.6558 55.6194 14.2135C58.0107 12.7712 60.6865 12.05 63.6471 12.05C65.9244 12.05 67.9361 12.4865 69.6821 13.3595C71.466 14.1945 72.8703 15.3901 73.8951 16.9463L72.5857 18.6543V0.720215H81.1257V43.819H73.155V38.1256L73.9521 39.8906C72.8893 41.4088 71.447 42.5665 69.6251 43.3635C67.8032 44.1226 65.8295 44.5022 63.704 44.5022ZM64.7288 36.8162C66.285 36.8162 67.6514 36.4556 68.8281 35.7344C70.0047 35.0133 70.9156 34.0074 71.5609 32.7169C72.2441 31.4264 72.5857 29.9462 72.5857 28.2761C72.5857 26.6061 72.2441 25.1258 71.5609 23.8353C70.9156 22.5448 70.0047 21.539 68.8281 20.8178C67.6514 20.0966 66.285 19.7361 64.7288 19.7361C63.1726 19.7361 61.7683 20.1156 60.5157 20.8747C59.3012 21.5959 58.3523 22.6017 57.6691 23.8922C56.9859 25.1448 56.6443 26.6061 56.6443 28.2761C56.6443 29.9462 56.9859 31.4264 57.6691 32.7169C58.3523 34.0074 59.3012 35.0133 60.5157 35.7344C61.7683 36.4556 63.1726 36.8162 64.7288 36.8162Z" fill="#001F3F"/>
<path d="M14.9897 43.8193V12.7335H22.9604V18.8823L22.5049 17.5159C23.2261 15.6561 24.3838 14.2897 25.9779 13.4167C27.61 12.5058 29.5078 12.0503 31.6713 12.0503C34.0245 12.0503 36.0741 12.5437 37.8201 13.5306C39.604 14.5174 40.9894 15.9028 41.9763 17.6867C42.9631 19.4327 43.4565 21.4823 43.4565 23.8356V43.8193H34.9165V25.6574C34.9165 24.4429 34.6698 23.3991 34.1763 22.5261C33.7209 21.6531 33.0566 20.9699 32.1837 20.4765C31.3486 19.983 30.3618 19.7363 29.2231 19.7363C28.1224 19.7363 27.1355 19.983 26.2626 20.4765C25.3896 20.9699 24.7064 21.6531 24.213 22.5261C23.7575 23.3991 23.5297 24.4429 23.5297 25.6574V43.8193H14.9897Z" fill="#001F3F"/>
<path d="M0.200195 43.8189V12.7331H8.74024V43.8189H0.200195ZM0.200195 9.94337V1.40332H8.74024V9.94337H0.200195Z" fill="#001F3F"/>
</svg>
